# AST/ASF file generated using VICON BodyLanguage
# -----------------------------------------------
:version 1.10
:name VICON
:units
  mass 1.0
  length 0.45
  angle deg
:documentation
   .ast/.asf automatically generated from VICON data using
   VICON BodyBuilder and BodyLanguage model FoxedUp or BRILLIANT.MOD
:root
   order TX TY TZ RX RY RZ
   axis XYZ
   position 0 0 0  
   orientation 0 0 0 
:bonedata
  begin
     id 1 
     name lhipjoint
     direction 0.653368 -0.678499 0.335782 
     length 2.51848 
     axis 0 0 0  XYZ
  end
  begin
     id 2 
     name lfemur
     direction 0.34202 -0.939693 0  
     length 6.57749  
     axis 0 0 20  XYZ
    dof rx ry rz
    limits (-160.0 20.0)
           (-70.0 70.0)
           (-60.0 70.0)
  end
  begin
     id 3 
     name ltibia
     direction 0.34202 -0.939693 0   
     length 7.94618   
     axis 0 0 20   XYZ
    dof rx
    limits (-10.0 170.0)
  end
  begin
     id 4 
     name lfoot
     direction 0.0811271 -0.222895 0.971461   
     length 2.31339   
     axis -90 7.62852e-016 20   XYZ
    dof rx rz
    limits (-45.0 90.0)
           (-70.0 20.0)
  end
  begin
     id 5 
     name ltoes
     direction 1.53568e-011 -4.21885e-011 1   
     length 1.15935   
     axis -90 7.62852e-016 20   XYZ
    dof rx
    limits (-90.0 20.0)
  end
  begin
     id 6 
     name rhipjoint
     direction -0.640058 -0.688614 0.340788   
     length 2.48149  
     axis 0 0 0  XYZ 
  end
  begin
     id 7 
     name rfemur
     direction -0.34202 -0.939693 0   
     length 6.57875   
     axis 0 0 -20   XYZ
    dof rx ry rz
    limits (-160.0 20.0)
           (-70.0 70.0)
           (-70.0 60.0)
  end
  begin
     id 8 
     name rtibia
     direction -0.34202 -0.939693 0   
     length 7.977   
     axis 0 0 -20   XYZ
    dof rx
    limits (-10.0 170.0)
 end
 begin
     id 9 
     name rfoot
     direction -0.0979793 -0.269196 0.958089   
     length 2.19857  
     axis -90 -7.62852e-016 -20   XYZ
    dof rx rz
    limits (-45.0 90.0)
           (-20.0 70.0)
  end
  begin
     id 10 
     name rtoes
     direction -1.53556e-011 -4.21868e-011 1   
     length 1.09838   
     axis -90 -7.62852e-016 -20   XYZ
    dof rx
    limits (-90.0 20.0)
  end
  begin
     id 11 
     name lowerback
     direction 0.0149039 0.998517 -0.0523597   
     length 2.10809   
     axis 0 0 0   XYZ
    dof rx ry rz
    limits (-20.0 45.0)
           (-30.0 30.0)
           (-30.0 30.0)
  end
  begin
     id 12 
     name upperback
     direction -0.00882659 0.999418 -0.0329624   
     length 2.1102   
     axis 0 0 0   XYZ
    dof rx ry rz
    limits (-20.0 45.0)
           (-30.0 30.0)
           (-30.0 30.0)
  end
  begin
     id 13 
     name thorax
     direction -0.0165585 0.999826 -0.0085833   
     length 2.11039   
     axis 0 0 0   XYZ
    dof rx ry rz
    limits (-20.0 45.0)
           (-30.0 30.0)
           (-30.0 30.0)
  end
  begin
     id 14 
     name lowerneck
     direction -0.0130877 0.999911 0.00260353   
     length 1.73253   
     axis 0 0 0   XYZ
    dof rx ry rz
    limits (-20.0 45.0)
           (-30.0 30.0)
           (-30.0 30.0)
  end
  begin
     id 15 
     name upperneck
     direction -0.0348454 0.928205 -0.370435   
     length 1.66692   
     axis 0 0 0   XYZ
    dof rx ry rz
    limits (-20.0 45.0)
           (-30.0 30.0)
           (-30.0 30.0)
  end
  begin
     id 16
     name head
     direction -0.00807754 0.992494 -0.122026  
     length 1.72765  
     axis 0 0 0   XYZ
    dof rx ry rz
    limits (-20.0 45.0)
           (-30.0 30.0)
           (-30.0 30.0)
  end
  begin
     id 17 
     name lclavicle
     direction 0.987582 0.144023 0.0627671  
     length 3.49235  
     axis 0 0 0   XYZ
    dof ry rz
    limits (-20.0 10.0)
           (0.0 20.0)
  end
  begin
     id 18 
     name lhumerus
     direction 1 -4.48958e-011 -1.45183e-018   
     length 5.41917   
     axis 180 -30 -90   XYZ
    dof rx ry rz
    limits (-60.0 90.0)
           (-90.0 90.0)
           (-90.0 90.0)
  end
  begin
     id 19
     name lradius
     direction 1 -4.48999e-011 5.75106e-027   
     length 2.44373   
     axis 180 -30 -90   XYZ
    dof rx
    limits (-10.0 170.0)
  end
  begin
     id 20
     name lwrist
     direction 1 -4.48987e-011 1.53461e-026   
     length 1.22186   
     axis -1.09697e-014 90 90   XYZ
    dof ry
    limits (-180.0 0.0)
 end
  begin
     id 21 
     name lhand
     direction 1 -4.48881e-011 3.06923e-026   
     length 0.727502   
     axis -1.95843e-014 90 90   XYZ
    dof rx rz
    limits (-90.0 90.0)
           (-45.0 45.0)
  end
  begin
     id 22 
     name lfingers
     direction 1 -4.48907e-011 6.13845e-026   
     length 0.586531   
     axis -3.91686e-014 90 90   XYZ
    dof rx
    limits (0.0 90.0)
  end
  begin
     id 23
     name lthumb
     direction 0.707107 -6.3487e-011 0.707107   
     length 0.842145   
     axis -90 45 2.85299e-015   XYZ
    dof rx rz
    limits (-45.0 45.0)
           (-45.0 45.0)
  end
  begin
     id 24 
     name rclavicle
     direction -0.980998 0.169556 0.0943023   
     length 3.29272  
     axis 0 0 0   XYZ 
    dof ry rz
    limits (-10.0 20.0)
           (-20.0 0.0)
  end
  begin
     id 25 
     name rhumerus
     direction -1 -1.83355e-005 2.45537e-005  
     length 5.58976   
     axis 180 30 90   XYZ
    dof rx ry rz
    limits (-90.0 60.0)
           (-90.0 90.0)
           (-90.0 90.0)
  end
  begin
     id 26 
     name rradius
     direction -1 -4.48967e-011 5.97228e-027   
     length 2.4806   
     axis 180 30 90   XYZ
    dof rx
    limits (-10.0 170.0)
  end
  begin
     id 27 
     name rwrist
     direction -1 -4.48963e-011 1.53461e-026   
     length 1.2403   
     axis -1.09697e-014 -90 -90   XYZ
    dof ry
    limits (-180.0 0.0)
  end
  begin
     id 28
     name rhand
     direction -1 -4.48881e-011 3.06923e-026   
     length 0.816009   
     axis -1.95843e-014 -90 -90   XYZ
    dof rx rz
    limits (-90.0 90.0)
           (-45.0 45.0)
  end
  begin
     id 29
     name rfingers
     direction -1 -4.49018e-011 6.13845e-026   
     length 0.657887   
     axis -3.91686e-014 -90 -90   XYZ
    dof rx
    limits (0.0 90.0)
  end
  begin
     id 30
     name rthumb
     direction -0.707107 -6.34872e-011 0.707107   
     length 0.944599   
     axis -90 -45 -2.85299e-015   XYZ
    dof rx rz
    limits (-45.0 45.0)
           (-45.0 45.0)
  end
:hierarchy
  begin
    root lhipjoint rhipjoint lowerback
    lhipjoint lfemur
    lfemur ltibia
    ltibia lfoot
    lfoot ltoes
    rhipjoint rfemur
    rfemur rtibia
    rtibia rfoot
    rfoot rtoes
    lowerback upperback
    upperback thorax
    thorax lowerneck lclavicle rclavicle
    lowerneck upperneck
    upperneck head
    lclavicle lhumerus
    lhumerus lradius
    lradius lwrist
    lwrist lhand lthumb
    lhand lfingers
    rclavicle rhumerus
    rhumerus rradius
    rradius rwrist
    rwrist rhand rthumb
    rhand rfingers
  end

#!OML:ASF F:\VICON\USERDATA\INSTALL\rory3\rory3.ASF
:FULLY-SPECIFIED
:DEGREES
1
root 4.32281 16.5929 -15.2362 30.1795 9.0338 -3.19998
lowerback -18.546 -3.01197 3.95342
upperback -11.6687 -4.53868 5.28282
thorax -2.0803 -2.31333 2.63998
lowerneck -14.2733 -8.36048 -2.87815
upperneck 39.3708 -11.0726 -2.82053
head 16.5378 -5.44872 -2.7216
rclavicle -2.4699e-014 1.03368e-014
rhumerus -50.4758 7.42994 -75.9826
rradius 24.7209
rwrist -18.9262
rhand 4.56578 12.4538
rfingers 7.12502
rthumb 29.9557 -15.1415
lclavicle -2.4699e-014 1.03368e-014
lhumerus -56.4139 -2.47846 87.6062
lradius 32.4658
lwrist 6.25655
lhand -2.13946 16.2709
lfingers 7.12502
lthumb 23.5396 44.8505
rfemur -44.1107 4.87191 33.5912
rtibia 29.5908
rfoot -31.4195 -32.9899
rtoes 19.1168
lfemur -21.9207 18.9033 -27.3766
ltibia 39.5467
lfoot 38.2531 37.3952
ltoes 10.248
2
root 4.32596 16.5834 -15.2338 30.1732 9.09268 -3.21382
lowerback -18.4938 -3.00502 3.99608
upperback -11.7613 -4.52562 5.31763
thorax -2.21007 -2.30889 2.6637
lowerneck -14.3827 -8.19812 -2.94482
upperneck 39.6827 -10.875 -2.68191
head 16.752 -5.34445 -2.64455
rclavicle -1.90088e-014 -2.22639e-014
rhumerus -50.5396 7.39059 -75.963
rradius 24.6362
rwrist -18.5485
rhand 3.31234 12.2131
rfingers 7.12502
rthumb 28.759 -15.5919
lclavicle -1.90088e-014 -2.22639e-014
lhumerus -56.4409 -2.42369 87.6582
lradius 32.2623
lwrist 6.10281
lhand -2.04429 16.3176
lfingers 7.12502
lthumb 23.6309 44.8853
rfemur -43.8791 4.35515 33.9018
rtibia 29.4304
rfoot -32.3621 -31.826
rtoes 21.3023
lfemur -21.9156 18.741 -27.3076
ltibia 39.6777
lfoot 43.8624 28.56
ltoes -8.07815
3
root 4.32425 16.5787 -15.2371 30.2087 9.07295 -3.24057
lowerback -18.4781 -2.95605 4.00023
upperback -11.8264 -4.45586 5.31137
thorax -2.29206 -2.27461 2.67063
lowerneck -14.5451 -7.95315 -2.87085
upperneck 40.0054 -10.595 -2.53486
head 16.9764 -5.18296 -2.57353
rclavicle 4.14963e-015 -3.81667e-014
rhumerus -50.5844 7.28015 -75.9915
rradius 24.6641
rwrist -18.2135
rhand 2.20885 12.3065
rfingers 7.12502
rthumb 27.7043 -15.6727
lclavicle 4.14963e-015 -3.81667e-014
lhumerus -56.3954 -2.55064 87.7505
lradius 32.1127
lwrist 6.09126
lhand -1.87801 16.4699
lfingers 7.12502
lthumb 23.7904 45.0169
rfemur -43.831 4.29589 33.9909
rtibia 29.3664
rfoot -33.1864 -31.3116
rtoes 22.5997
lfemur -22.0097 18.7256 -27.2898
ltibia 39.714
lfoot 43.5545 29.5261
ltoes -6.53806
4
root 4.32027 16.5782 -15.2401 30.2461 9.05504 -3.19871
lowerback -18.4791 -2.95257 3.90865
upperback -11.8629 -4.43541 5.3086
thorax -2.32462 -2.25965 2.72375
lowerneck -14.9236 -7.53033 -2.61248
upperneck 40.401 -10.0468 -2.50516
head 17.2746 -4.89541 -2.55035
rclavicle -5.91633e-014 1.03368e-014
rhumerus -50.5462 7.23227 -76.018
rradius 24.5968
rwrist -18.0225
rhand 1.40223 13.11
rfingers 7.12502
rthumb 26.9328 -14.9908
lclavicle -5.91633e-014 1.03368e-014
lhumerus -56.2861 -2.50179 87.7168
lradius 32.0177
lwrist 6.01472
lhand -1.84297 16.4594
lfingers 7.12502
lthumb 23.824 45.0021
rfemur -43.8525 4.50906 33.86
rtibia 29.3125
rfoot -33.2302 -31.547
rtoes 22.5986
lfemur -22.076 18.6631 -27.318
ltibia 39.7298
lfoot 43.7264 29.8024
ltoes -6.61765
5
root 4.3194 16.5782 -15.2381 30.2798 9.03861 -3.14855
lowerback -18.5261 -2.94182 3.82939
upperback -11.9247 -4.40809 5.28826
thorax -2.36414 -2.24237 2.75146
lowerneck -15.4018 -7.32306 -2.36734
upperneck 41.0362 -9.81458 -2.56663
head 17.7342 -4.7433 -2.64422
rclavicle 2.51463e-014 2.54444e-014
rhumerus -50.6049 7.27821 -76.1421
rradius 24.4703
rwrist -17.9071
rhand 0.494214 14.0718
rfingers 7.12502
rthumb 26.0637 -14.1601
lclavicle 2.51463e-014 2.54444e-014
lhumerus -56.3093 -2.52242 87.71
lradius 32.0331
lwrist 5.98697
lhand -1.68429 16.6983
lfingers 7.12502
lthumb 23.9762 45.2211
rfemur -43.8567 4.42342 33.851
rtibia 29.2744
rfoot -33.2345 -31.4065
rtoes 22.7511
lfemur -22.0703 18.6362 -27.3511
ltibia 39.7242
lfoot 42.5728 31.1827
ltoes -2.68862
6
root 4.32165 16.5781 -15.2327 30.2377 9.0279 -3.21635
lowerback -18.4951 -2.8844 3.93159
upperback -12.0272 -4.33777 5.2588
thorax -2.50534 -2.21443 2.68236
lowerneck -16.3346 -7.06299 -1.96277
upperneck 42.1751 -9.50309 -2.8291
head 18.6058 -4.53632 -2.90556
rclavicle 1.13307e-014 2.06736e-014
rhumerus -50.9244 7.355 -76.3621
rradius 24.6273
rwrist -17.7943
rhand -0.558043 14.5936
rfingers 7.12502
rthumb 25.0558 -13.7829
lclavicle 1.13307e-014 2.06736e-014
lhumerus -56.5356 -2.59346 87.7005
lradius 32.1283
lwrist 5.96346
lhand -1.71831 16.8914
lfingers 7.12502
lthumb 23.9435 45.4185
rfemur -43.7896 4.15685 34.0571
rtibia 29.2692
rfoot -33.0478 -31.1613
rtoes 22.7216
lfemur -21.9838 18.6593 -27.2591
ltibia 39.7096
lfoot 47.7866 26.5601
ltoes -8.99498
7
root 4.32253 16.5757 -15.229 30.2095 9.03755 -3.365
lowerback -18.4524 -2.81688 4.10404
upperback -12.111 -4.26474 5.26984
thorax -2.63477 -2.18767 2.61726
lowerneck -16.0591 -6.86668 -2.01524
upperneck 42.3922 -9.32895 -2.5185
head 18.7001 -4.42667 -2.71627
rclavicle -5.56349e-014 5.1684e-014
rhumerus -51.1666 7.43168 -76.5425
rradius 24.8649
rwrist -17.6835
rhand -1.37532 14.6918
rfingers 7.12502
rthumb 24.2724 -13.7917
lclavicle -5.56349e-014 5.1684e-014
lhumerus -56.7444 -2.53893 87.6381
lradius 32.2836
lwrist 6.01375
lhand -1.9228 16.8358
lfingers 7.12502
lthumb 23.7474 45.3885
rfemur -43.751 4.07683 34.2772
rtibia 29.2618
rfoot -32.5496 -31.1064
rtoes 22.1887
lfemur -21.9506 18.6263 -27.0857
ltibia 39.69
lfoot 42.3859 30.5157
ltoes -2.23449
8
root 4.32065 16.5729 -15.2277 30.166 8.97133 -3.37031
lowerback -18.4411 -2.77265 4.04486
upperback -12.0901 -4.19845 5.26572
thorax -2.61413 -2.15045 2.65545
lowerneck -16.6609 -6.55445 -1.7349
upperneck 42.9083 -8.94642 -2.5513
head 19.1711 -4.20208 -2.77294
rclavicle -6.70898e-015 -1.82882e-014
rhumerus -51.1243 7.35049 -76.5587
rradius 24.9858
rwrist -17.4514
rhand -2.07831 14.5031
rfingers 7.12502
rthumb 23.5983 -14.0689
lclavicle -6.70898e-015 -1.82882e-014
lhumerus -56.6545 -2.4764 87.6281
lradius 32.1978
lwrist 6.11338
lhand -1.99443 16.8732
lfingers 7.12502
lthumb 23.6787 45.4348
rfemur -43.688 4.32723 34.1642
rtibia 29.248
rfoot -32.3435 -31.306
rtoes 22.0531
lfemur -21.8676 18.6064 -27.0787
ltibia 39.6445
lfoot 44.9129 26.9553
ltoes -11.7982
9
root 4.32143 16.571 -15.2221 29.9979 8.79473 -3.38378
lowerback -18.3349 -2.6833 3.97552
upperback -12.085 -4.06424 5.229
thorax -2.66231 -2.08014 2.68098
lowerneck -16.8471 -6.31942 -1.4886
upperneck 43.2903 -8.66801 -2.593
head 19.4518 -4.03919 -2.81428
rclavicle -4.91744e-014 0
rhumerus -51.1803 7.01 -76.3557
rradius 25.0015
rwrist -16.9669
rhand -2.71546 14.3901
rfingers 7.12502
rthumb 22.987 -14.2592
lclavicle -4.91744e-014 0
lhumerus -56.6383 -2.3014 87.4794
lradius 32.0982
lwrist 5.98112
lhand -2.00816 16.712
lfingers 7.12502
lthumb 23.6656 45.2753
rfemur -43.4753 4.451 34.0992
rtibia 29.2522
rfoot -32.0339 -31.5046
rtoes 21.1253
lfemur -21.6172 18.7665 -27.0862
ltibia 39.5709
lfoot 44.8715 26.5245
ltoes -12.1753
10
root 4.32615 16.5692 -15.2108 29.6791 8.64759 -3.52762
lowerback -18.2206 -2.56706 4.07078
upperback -11.995 -3.92289 5.22293
thorax -2.63202 -2.0134 2.64433
lowerneck -15.7482 -6.09098 -1.63321
upperneck 42.6132 -8.45327 -2.03176
head 18.7754 -3.93982 -2.37369
rclavicle -2.76311e-014 -3.18055e-015
rhumerus -51.0672 6.56251 -76.0033
rradius 24.6853
rwrist -16.2531
rhand -3.35467 14.8328
rfingers 7.12502
rthumb 22.3735 -13.8917
lclavicle -2.76311e-014 -3.18055e-015
lhumerus -56.5981 -2.13478 87.302
lradius 32.0514
lwrist 5.78949
lhand -1.91595 16.2024
lfingers 7.12502
lthumb 23.754 44.7542
rfemur -43.0945 4.15947 34.3776
rtibia 29.2889
rfoot -30.1544 -31.8438
rtoes 17.7586
lfemur -21.1605 19.0135 -26.8939
ltibia 39.4697
lfoot 44.2344 27.6028
ltoes -9.75387
11
root 4.3291 16.5664 -15.2043 29.5082 8.56367 -3.55546
lowerback -18.2183 -2.52528 4.02972
upperback -11.8895 -3.86887 5.22296
thorax -2.51474 -1.98232 2.66998
lowerneck -15.5708 -5.84724 -1.53307
upperneck 42.4217 -8.21231 -1.74359
head 18.6266 -3.79353 -2.18723
rclavicle 1.717e-014 -4.29375e-014
rhumerus -50.7184 6.17975 -75.7396
rradius 24.1655
rwrist -15.6939
rhand -4.06735 15.436
rfingers 7.12502
rthumb 21.6893 -13.369
lclavicle 1.717e-014 -4.29375e-014
lhumerus -56.4232 -1.91455 87.0922
lradius 31.8605
lwrist 5.51412
lhand -1.66115 15.8016
lfingers 7.12502
lthumb 23.9984 44.3215
rfemur -42.8909 3.98644 34.4731
rtibia 29.3136
rfoot -32.0281 -31.0099
rtoes 20.9741
lfemur -20.8677 19.103 -26.8485
ltibia 39.3708
lfoot 44.0839 27.9859
ltoes -9.18636
12
root 4.32881 16.5643 -15.2035 29.4552 8.54631 -3.51441
lowerback -18.0853 -2.51976 3.92462
upperback -11.9428 -3.83417 5.24459
thorax -2.63289 -1.95909 2.76585
lowerneck -15.6937 -5.58496 -1.40962
upperneck 42.6272 -7.9191 -1.58664
head 18.7948 -3.62366 -2.09338
rclavicle 6.80837e-015 1.43125e-014
rhumerus -50.6183 5.98542 -75.5947
rradius 23.9049
rwrist -15.323
rhand -4.86193 15.5091
rfingers 7.12502
rthumb 20.9261 -13.3821
lclavicle 6.80837e-015 1.43125e-014
lhumerus -56.4816 -1.73675 87.0263
lradius 31.7344
lwrist 5.42414
lhand -1.555 15.6477
lfingers 7.12502
lthumb 24.1001 44.1541
rfemur -42.8239 4.09972 34.3682
rtibia 29.308
rfoot -32.7408 -30.8537
rtoes 22.1632
lfemur -20.7509 19.0971 -26.8848
ltibia 39.3111
lfoot 44.2561 28.1029
ltoes -9.75321
13
root 4.33197 16.5621 -15.1971 29.3346 8.53552 -3.54944
lowerback -18.0285 -2.46277 3.9825
upperback -11.9352 -3.7632 5.2396
thorax -2.65974 -1.92639 2.74152
lowerneck -16.064 -5.31302 -1.17753
upperneck 43.0465 -7.61765 -1.53419
head 19.155 -3.43672 -2.08723
rclavicle -2.06736e-014 2.38542e-014
rhumerus -50.5518 5.71582 -75.4041
rradius 23.8132
rwrist -15.1387
rhand -5.44566 15.4549
rfingers 7.12502
rthumb 20.3652 -13.4972
lclavicle -2.06736e-014 2.38542e-014
lhumerus -56.5878 -1.739 87.1116
lradius 31.8138
lwrist 5.51598
lhand -1.54732 15.6559
lfingers 7.12502
lthumb 24.1075 44.1614
rfemur -42.6715 3.87542 34.5139
rtibia 29.2958
rfoot -32.0869 -30.9164
rtoes 20.8175
lfemur -20.5703 19.1791 -26.8136
ltibia 39.2912
lfoot 40.8105 31.2662
ltoes -1.4251
14
root 4.3354 16.5613 -15.1903 29.2745 8.57902 -3.72096
lowerback -18.1178 -2.37405 4.20915
upperback -11.9165 -3.68423 5.24485
thorax -2.61159 -1.89774 2.6283
lowerneck -16.2949 -5.10108 -1.03501
upperneck 43.3248 -7.42266 -1.36774
head 19.4066 -3.29716 -2.01675
rclavicle 1.71452e-014 2.3059e-014
rhumerus -50.4075 5.21252 -75.0878
rradius 23.5231
rwrist -14.7592
rhand -5.88276 15.7245
rfingers 7.12502
rthumb 19.9451 -13.272
lclavicle 1.71452e-014 2.3059e-014
lhumerus -56.5984 -1.82394 87.1862
lradius 31.8341
lwrist 5.60595
lhand -1.39294 15.9442
lfingers 7.12502
lthumb 24.2555 44.4299
rfemur -42.6275 3.53 34.8794
rtibia 29.3177
rfoot -31.3675 -30.8577
rtoes 19.5516
lfemur -20.4623 19.2631 -26.6123
ltibia 39.2431
lfoot 43.1179 29.493
ltoes -6.07278
